<svg width="41" height="41" viewBox="0 0 41 41" fill="none" xmlns="http://www.w3.org/2000/svg">
<g clip-path="url(#clip0_108_1445)">
<path d="M0 0.0200195H40.96V40.98H0V0.0200195Z" fill="#F7DF1E"/>
<path d="M10.7701 34.2492L13.9046 32.3522C14.5093 33.4244 15.0594 34.3316 16.3789 34.3316C17.6438 34.3316 18.4412 33.8368 18.4412 31.9123V18.8246H22.2904V31.9668C22.2904 35.9535 19.9534 37.7682 16.5439 37.7682C13.4647 37.7682 11.6773 36.1734 10.77 34.2489" fill="black"/>
<path d="M24.3809 33.8367L27.515 32.0221C28.3401 33.3695 29.4124 34.3592 31.3094 34.3592C32.9043 34.3592 33.9214 33.5618 33.9214 32.462C33.9214 31.1422 32.8766 30.6747 31.1169 29.9052L30.1549 29.4924C27.3777 28.3104 25.5355 26.8257 25.5355 23.6912C25.5355 20.8042 27.735 18.6046 31.172 18.6046C33.6191 18.6046 35.3787 19.457 36.6434 21.6841L33.6464 23.6086C32.9865 22.4264 32.2718 21.9591 31.1721 21.9591C30.0448 21.9591 29.3299 22.674 29.3299 23.6086C29.3299 24.7634 30.0448 25.231 31.6943 25.9459L32.6565 26.3583C35.9285 27.7606 37.7707 29.1902 37.7707 32.407C37.7707 35.8715 35.0487 37.7685 31.392 37.7685C27.8177 37.7685 25.508 36.0639 24.3809 33.8367Z" fill="black"/>
</g>
<defs>
<clipPath id="clip0_108_1445">
<rect width="40.96" height="40.96" fill="white" transform="translate(0 0.0200195)"/>
</clipPath>
</defs>
</svg>
