<svg width="26" height="26" viewBox="0 0 26 26" fill="none" xmlns="http://www.w3.org/2000/svg">
<path d="M2.75757 5.60953C2.75757 4.92561 2.98825 4.36137 3.44962 3.91682C3.91099 3.47227 4.51078 3.25 5.24897 3.25C5.97398 3.25 6.56058 3.46886 7.00877 3.90657C7.47014 4.35795 7.70082 4.94613 7.70082 5.67109C7.70082 6.32765 7.47673 6.87479 7.02854 7.3125C6.56717 7.76389 5.9608 7.98958 5.20942 7.98958H5.18965C4.46464 7.98958 3.87804 7.76389 3.42985 7.3125C2.98166 6.86111 2.75757 6.29346 2.75757 5.60953ZM3.01462 23.5625V9.85669H7.40423V23.5625H3.01462ZM9.83631 23.5625H14.2259V15.9094C14.2259 15.4307 14.2786 15.0613 14.3841 14.8015C14.5687 14.3364 14.8488 13.9431 15.2245 13.6217C15.6001 13.3002 16.0714 13.1395 16.6382 13.1395C18.1146 13.1395 18.8528 14.1722 18.8528 16.2377V23.5625H23.2424V15.7042C23.2424 13.6798 22.781 12.1444 21.8583 11.098C20.9356 10.0516 19.7162 9.52841 18.2003 9.52841C16.4998 9.52841 15.175 10.2876 14.2259 11.8059V11.8469H14.2061L14.2259 11.8059V9.85669H9.83631C9.86267 10.2944 9.87585 11.6554 9.87585 13.9397C9.87585 16.224 9.86267 19.4316 9.83631 23.5625Z" fill="#8812D7"/>
</svg>
