<svg width="72" height="43" viewBox="0 0 72 43" fill="none" xmlns="http://www.w3.org/2000/svg">
<g clip-path="url(#clip0_108_1462)">
<path d="M35.947 42.8759C35.7067 42.8759 35.4823 42.8126 35.2739 42.7018L33.1424 41.4515C32.8217 41.2773 32.9821 41.2141 33.0783 41.1824C33.5109 41.04 33.5911 41.0083 34.0398 40.7552C34.088 40.7234 34.1522 40.7393 34.2001 40.7709L35.835 41.7364C35.899 41.768 35.9792 41.768 36.0271 41.7364L42.422 38.0803C42.4861 38.0487 42.5182 37.9852 42.5182 37.9062V30.6099C42.5182 30.5306 42.4861 30.4675 42.422 30.4357L36.0271 26.7955C35.9631 26.7638 35.8829 26.7638 35.835 26.7955L29.4401 30.4357C29.376 30.4674 29.3439 30.5465 29.3439 30.6098V37.9061C29.3439 37.9695 29.376 38.0485 29.4401 38.0803L31.1871 39.0774C32.1327 39.5521 32.7256 38.9982 32.7256 38.4443V31.2429C32.7256 31.148 32.8058 31.0529 32.918 31.0529H33.7353C33.8316 31.0529 33.9277 31.1321 33.9277 31.2429V38.4443C33.9277 39.6946 33.2385 40.4227 32.0365 40.4227C31.6679 40.4227 31.3794 40.4227 30.562 40.0269L28.8792 39.0774C28.4625 38.84 28.2061 38.3968 28.2061 37.922V30.6257C28.2061 30.1509 28.4625 29.7076 28.8792 29.4703L35.2739 25.8142C35.6746 25.5926 36.2196 25.5926 36.6202 25.8142L43.015 29.4703C43.4317 29.7076 43.6882 30.1509 43.6882 30.6257V37.922C43.6882 38.3968 43.4317 38.84 43.015 39.0774L36.6202 42.7335C36.4118 42.8285 36.1714 42.8759 35.947 42.8759ZM37.9184 37.8587C35.1137 37.8587 34.5367 36.5925 34.5367 35.5163C34.5367 35.4213 34.6169 35.3264 34.729 35.3264H35.5625C35.6586 35.3264 35.7387 35.3896 35.7387 35.4847C35.867 36.3234 36.2356 36.735 37.9344 36.735C39.2807 36.735 39.8578 36.4342 39.8578 35.722C39.8578 35.3105 39.6974 35.0099 37.5979 34.8041C35.8509 34.6299 34.7611 34.2501 34.7611 32.8732C34.7611 31.5911 35.851 30.8314 37.678 30.8314C39.7294 30.8314 40.7392 31.5278 40.8675 33.0471C40.8675 33.0947 40.8514 33.1421 40.8194 33.1896C40.7872 33.2213 40.7392 33.2529 40.6911 33.2529H39.8577C39.7775 33.2529 39.6974 33.1896 39.6814 33.1105C39.4891 32.2401 38.9922 31.9551 37.678 31.9551C36.2035 31.9551 36.0271 32.4617 36.0271 32.8414C36.0271 33.3004 36.2356 33.4429 38.2229 33.6961C40.1942 33.9494 41.1239 34.3134 41.1239 35.6745C41.1078 37.0673 39.9539 37.8587 37.9184 37.8587Z" fill="#539E43"/>
<path d="M16.1056 14.3395C16.1056 14.0547 15.9453 13.7854 15.6889 13.643L8.89345 9.78124C8.78113 9.71784 8.653 9.6862 8.52486 9.67032H8.46066C8.33253 9.67032 8.20425 9.71784 8.09207 9.78124L1.29659 13.643C1.04005 13.7854 0.879883 14.0545 0.879883 14.3395L0.895969 24.7221C0.895969 24.8645 0.976121 25.0069 1.10425 25.0703C1.23253 25.1495 1.39269 25.1495 1.50502 25.0703L5.54383 22.7912C5.80024 22.6488 5.96054 22.3797 5.96054 22.0949V17.2359C5.96054 16.951 6.12071 16.6819 6.37725 16.5395L8.09207 15.5582C8.22034 15.479 8.36456 15.4472 8.50878 15.4472C8.653 15.4472 8.79721 15.479 8.90954 15.5582L10.6244 16.5395C10.8809 16.6819 11.0411 16.9509 11.0411 17.2359V22.0949C11.0411 22.3797 11.2014 22.6488 11.4578 22.7912L15.4966 25.0703C15.559 25.1091 15.6312 25.1297 15.7049 25.1297C15.7787 25.1297 15.8509 25.1091 15.9133 25.0703C16.0416 25.0069 16.1217 24.8645 16.1217 24.7221L16.1056 14.3395ZM48.7688 0.0474923C48.6407 -0.0159122 48.4804 -0.0159122 48.3681 0.0474923C48.2399 0.126645 48.1598 0.25318 48.1598 0.395601V10.6834C48.1598 10.7783 48.1118 10.8732 48.0156 10.9366C47.9195 10.984 47.8232 10.984 47.7271 10.9366L46.0283 9.97118C45.9037 9.90115 45.7628 9.86432 45.6195 9.86432C45.4762 9.86432 45.3353 9.90115 45.2108 9.97118L38.4153 13.8489C38.1589 13.9913 37.9986 14.2604 37.9986 14.5452V22.2847C37.9986 22.5695 38.1589 22.8387 38.4153 22.9811L45.2108 26.8588C45.3353 26.9288 45.4762 26.9657 45.6195 26.9657C45.7628 26.9657 45.9037 26.9288 46.0283 26.8588L52.8237 22.9811C53.0801 22.8387 53.2404 22.5696 53.2404 22.2847V2.99135C53.2404 2.69062 53.0801 2.42167 52.8237 2.27911L48.7688 0.0474923ZM48.1438 19.7366C48.1438 19.8157 48.1118 19.879 48.0476 19.9106L45.7237 21.2401C45.6913 21.2557 45.6556 21.2638 45.6195 21.2638C45.5834 21.2638 45.5478 21.2557 45.5153 21.2401L43.1914 19.9106C43.1272 19.879 43.0952 19.7998 43.0952 19.7366V17.0775C43.0952 16.9984 43.1272 16.9351 43.1914 16.9035L45.5153 15.5739C45.5478 15.5583 45.5834 15.5502 45.6195 15.5502C45.6556 15.5502 45.6913 15.5583 45.7237 15.5739L48.0476 16.9035C48.1118 16.935 48.1438 17.0143 48.1438 17.0775V19.7366ZM71.383 17.0143C71.6396 16.8719 71.7838 16.6028 71.7838 16.3178V14.4344C71.7838 14.1496 71.6235 13.8805 71.383 13.7381L64.6357 9.87628C64.5111 9.80627 64.3703 9.76946 64.227 9.76946C64.0837 9.76946 63.9429 9.80627 63.8183 9.87628L57.0229 13.7538C56.7663 13.8962 56.6062 14.1653 56.6062 14.4503V22.1898C56.6062 22.4746 56.7663 22.7437 57.0229 22.8861L63.7702 26.6846C64.0268 26.827 64.3311 26.827 64.5716 26.6846L68.6584 24.4374C68.7867 24.374 68.8668 24.2316 68.8668 24.0891C68.8668 23.9467 68.7867 23.8043 68.6584 23.7409L61.8309 19.8632C61.7028 19.7842 61.6226 19.6575 61.6226 19.5151V17.0936C61.6226 16.9511 61.7028 16.8087 61.8309 16.7453L63.9626 15.5424C64.025 15.5036 64.0972 15.4831 64.1709 15.4831C64.2446 15.4831 64.3169 15.5036 64.3793 15.5424L66.5108 16.7453C66.6391 16.8245 66.7192 16.951 66.7192 17.0936V18.9928C66.7192 19.1352 66.7994 19.2777 66.9275 19.3409C66.9899 19.3797 67.0621 19.4003 67.1358 19.4003C67.2096 19.4003 67.2818 19.3797 67.3442 19.3409L71.383 17.0143Z" fill="#333333"/>
<path d="M64.123 16.6503C64.1468 16.6348 64.1746 16.6266 64.2031 16.6266C64.2316 16.6266 64.2594 16.6348 64.2832 16.6503L65.5814 17.3942C65.6296 17.4257 65.6616 17.4732 65.6616 17.5366V19.0243C65.6616 19.0876 65.6296 19.1351 65.5814 19.1667L64.2832 19.9106C64.2594 19.9261 64.2316 19.9343 64.2031 19.9343C64.1746 19.9343 64.1468 19.9261 64.123 19.9106L62.8248 19.1667C62.7767 19.1351 62.7446 19.0876 62.7446 19.0243V17.5366C62.7446 17.4732 62.7767 17.4257 62.8248 17.3942L64.123 16.6503Z" fill="#539E43"/>
<path d="M27.4689 9.90791C27.3443 9.8379 27.2035 9.80109 27.0602 9.80109C26.9169 9.80109 26.7761 9.8379 26.6515 9.90791L19.9042 13.7537C19.6476 13.8961 19.5034 14.1652 19.5034 14.45V22.158C19.5034 22.4428 19.6637 22.7119 19.9042 22.8543L26.6515 26.7004C26.7761 26.7704 26.9169 26.8072 27.0602 26.8072C27.2035 26.8072 27.3443 26.7704 27.4689 26.7004L34.2164 22.8543C34.4728 22.7119 34.6171 22.4428 34.6171 22.158V14.4502C34.6171 14.1653 34.4567 13.8962 34.2164 13.7538L27.4689 9.90791Z" fill="url(#paint0_linear_108_1462)"/>
<mask id="mask0_108_1462" style="mask-type:luminance" maskUnits="userSpaceOnUse" x="19" y="9" width="16" height="18">
<path d="M27.4689 9.90791C27.3443 9.8379 27.2035 9.80109 27.0602 9.80109C26.9169 9.80109 26.7761 9.8379 26.6515 9.90791L19.9042 13.7537C19.6476 13.8961 19.5034 14.1652 19.5034 14.45V22.158C19.5034 22.4428 19.6637 22.7119 19.9042 22.8543L26.6515 26.7004C26.7761 26.7704 26.9169 26.8072 27.0602 26.8072C27.2035 26.8072 27.3443 26.7704 27.4689 26.7004L34.2164 22.8543C34.4728 22.7119 34.6171 22.4428 34.6171 22.158V14.4502C34.6171 14.1653 34.4567 13.8962 34.2164 13.7538L27.4689 9.90791Z" fill="white"/>
</mask>
<g mask="url(#mask0_108_1462)">
<path d="M34.2326 13.7538L27.4532 9.90789C27.3866 9.87467 27.3168 9.84815 27.2448 9.82874L19.6479 22.6805C19.7109 22.7564 19.7869 22.8207 19.8725 22.8705L26.6519 26.7165C26.8442 26.8273 27.0686 26.8589 27.2768 26.7955L34.409 13.9122C34.3609 13.849 34.2967 13.8012 34.2326 13.7538Z" fill="url(#paint1_linear_108_1462)"/>
</g>
<mask id="mask1_108_1462" style="mask-type:luminance" maskUnits="userSpaceOnUse" x="19" y="9" width="16" height="18">
<path d="M27.4689 9.90791C27.3443 9.8379 27.2035 9.80109 27.0602 9.80109C26.9169 9.80109 26.7761 9.8379 26.6515 9.90791L19.9042 13.7537C19.6476 13.8961 19.5034 14.1652 19.5034 14.45V22.158C19.5034 22.4428 19.6637 22.7119 19.9042 22.8543L26.6515 26.7004C26.7761 26.7704 26.9169 26.8072 27.0602 26.8072C27.2035 26.8072 27.3443 26.7704 27.4689 26.7004L34.2164 22.8543C34.4728 22.7119 34.6171 22.4428 34.6171 22.158V14.4502C34.6171 14.1653 34.4567 13.8962 34.2164 13.7538L27.4689 9.90791Z" fill="white"/>
</mask>
<g mask="url(#mask1_108_1462)">
<path fill-rule="evenodd" clip-rule="evenodd" d="M34.2487 22.8545C34.441 22.7437 34.5852 22.5538 34.6494 22.3481L27.2126 9.81293C27.0202 9.78129 26.8118 9.79704 26.6357 9.90783L19.9043 13.7381L27.1645 26.8113C27.27 26.7943 27.3726 26.7623 27.469 26.7164L34.2485 22.8547L34.2487 22.8545Z" fill="url(#paint2_linear_108_1462)"/>
<path fill-rule="evenodd" clip-rule="evenodd" d="M34.2486 22.8545L27.4852 26.7005C27.3897 26.7486 27.2868 26.7807 27.1807 26.7955L27.3089 27.0329L34.8096 22.7439V22.6488L34.6172 22.3322C34.5852 22.5538 34.441 22.7437 34.2486 22.8545Z" fill="url(#paint3_linear_108_1462)"/>
<path fill-rule="evenodd" clip-rule="evenodd" d="M34.2486 22.8545L27.4852 26.7005C27.3897 26.7486 27.2868 26.7807 27.1807 26.7955L27.3089 27.0329L34.8096 22.7439V22.6488L34.6172 22.3322C34.5852 22.5538 34.441 22.7437 34.2486 22.8545Z" fill="url(#paint4_linear_108_1462)"/>
</g>
</g>
<defs>
<linearGradient id="paint0_linear_108_1462" x1="1050.08" y1="307.187" x2="323.641" y2="1463.05" gradientUnits="userSpaceOnUse">
<stop stop-color="#41873F"/>
<stop offset="0.3288" stop-color="#418B3D"/>
<stop offset="0.6352" stop-color="#419637"/>
<stop offset="0.9319" stop-color="#3FA92D"/>
<stop offset="1" stop-color="#3FAE2A"/>
</linearGradient>
<linearGradient id="paint1_linear_108_1462" x1="658.463" y1="947.654" x2="2500.03" y2="-65.5106" gradientUnits="userSpaceOnUse">
<stop offset="0.1376" stop-color="#41873F"/>
<stop offset="0.4032" stop-color="#54A044"/>
<stop offset="0.7136" stop-color="#66B848"/>
<stop offset="0.9081" stop-color="#6CC04A"/>
</linearGradient>
<linearGradient id="paint2_linear_108_1462" x1="-44.812" y1="860.389" x2="1516.52" y2="860.389" gradientUnits="userSpaceOnUse">
<stop offset="0.09192" stop-color="#6CC04A"/>
<stop offset="0.2864" stop-color="#66B848"/>
<stop offset="0.5968" stop-color="#54A044"/>
<stop offset="0.8624" stop-color="#41873F"/>
</linearGradient>
<linearGradient id="paint3_linear_108_1462" x1="-765.164" y1="258.66" x2="796.15" y2="258.66" gradientUnits="userSpaceOnUse">
<stop offset="0.09192" stop-color="#6CC04A"/>
<stop offset="0.2864" stop-color="#66B848"/>
<stop offset="0.5968" stop-color="#54A044"/>
<stop offset="0.8624" stop-color="#41873F"/>
</linearGradient>
<linearGradient id="paint4_linear_108_1462" x1="1023.61" y1="-969.839" x2="637.538" y2="1078.73" gradientUnits="userSpaceOnUse">
<stop stop-color="#41873F"/>
<stop offset="0.3288" stop-color="#418B3D"/>
<stop offset="0.6352" stop-color="#419637"/>
<stop offset="0.9319" stop-color="#3FA92D"/>
<stop offset="1" stop-color="#3FAE2A"/>
</linearGradient>
<clipPath id="clip0_108_1462">
<rect width="71" height="43" fill="white" transform="translate(0.847656)"/>
</clipPath>
</defs>
</svg>
