<svg width="47" height="41" viewBox="0 0 47 41" fill="none" xmlns="http://www.w3.org/2000/svg">
<path d="M38.7812 13.2962C38.304 13.1319 37.8095 12.9763 37.3004 12.8293C37.3841 12.4875 37.4609 12.1501 37.5292 11.8185C38.6501 6.37322 37.9172 1.98646 35.4146 0.542155C33.0148 -0.842744 29.0903 0.601236 25.1267 4.05328C24.7455 4.38523 24.3633 4.73668 23.9813 5.105C23.7267 4.86131 23.4725 4.62581 23.219 4.40055C19.065 0.709399 14.9013 -0.846103 12.4011 0.602382C10.0037 1.9913 9.29373 6.11527 10.3027 11.2758C10.4002 11.7743 10.5141 12.2833 10.6429 12.8008C10.0536 12.9682 9.48467 13.1467 8.94033 13.3366C4.07023 15.0358 0.959961 17.6989 0.959961 20.4612C0.959961 23.3142 4.29884 26.1758 9.37143 27.9109C9.77174 28.0478 10.1871 28.1773 10.6152 28.3002C10.4762 28.8599 10.3554 29.4085 10.2539 29.9435C9.29184 35.0144 10.0432 39.041 12.4342 40.4211C14.9039 41.8464 19.0488 40.3814 23.0849 36.8507C23.4039 36.5716 23.7241 36.2756 24.0448 35.9654C24.4605 36.366 24.8755 36.7451 25.2884 37.1007C29.1978 40.4675 33.059 41.827 35.4478 40.443C37.9151 39.0136 38.7169 34.6881 37.6759 29.4255C37.5964 29.0236 37.5039 28.613 37.4 28.1951C37.6911 28.1089 37.9768 28.02 38.2554 27.9276C43.5289 26.1791 46.96 23.3523 46.96 20.4612C46.96 17.6889 43.7494 15.0078 38.7812 13.2962ZM37.6374 26.0609C37.3859 26.1442 37.1278 26.2248 36.8648 26.3029C36.2826 24.4584 35.4969 22.4972 34.5354 20.4708C35.453 18.4927 36.2083 16.5565 36.7742 14.7241C37.2447 14.8603 37.7015 15.0041 38.1416 15.1557C42.3983 16.6223 44.9949 18.7905 44.9949 20.4612C44.9949 22.2408 42.1907 24.551 37.6374 26.0609ZM35.7481 29.8074C36.2085 32.1345 36.2742 34.2384 35.9693 35.8832C35.6953 37.3611 35.1444 38.3464 34.4631 38.7411C33.0134 39.5808 29.9133 38.4893 26.5699 35.61C26.1867 35.2799 25.8006 34.9275 25.4133 34.5545C26.7095 33.1358 28.0049 31.4866 29.2692 29.6549C31.4929 29.4575 33.5939 29.1346 35.4991 28.6938C35.593 29.0727 35.6763 29.4442 35.7481 29.8074ZM16.6424 38.5959C15.2261 39.0965 14.098 39.1109 13.4161 38.7174C11.9651 37.8799 11.3619 34.6469 12.1847 30.3102C12.279 29.8136 12.3911 29.3034 12.5204 28.7819C14.4048 29.1989 16.4904 29.499 18.7194 29.6799C19.9923 31.4722 21.3251 33.1196 22.6682 34.5621C22.3748 34.8456 22.0825 35.1155 21.7918 35.3699C20.0071 36.9311 18.2186 38.0388 16.6424 38.5959ZM10.007 26.05C7.76397 25.2828 5.91162 24.2856 4.64191 23.1975C3.50101 22.2197 2.92498 21.2489 2.92498 20.4612C2.92498 18.7849 5.42222 16.6468 9.58718 15.1936C10.0925 15.0173 10.6216 14.8511 11.1706 14.695C11.7462 16.5688 12.5013 18.528 13.4125 20.5091C12.4895 22.5196 11.7237 24.51 11.1424 26.4058C10.751 26.2932 10.3718 26.1747 10.007 26.05ZM12.2312 10.8981C11.3667 6.47671 11.9409 3.14135 13.3856 2.3044C14.9246 1.41279 18.3276 2.68403 21.9142 5.87116C22.1435 6.07487 22.3736 6.28808 22.6044 6.50867C21.2679 7.94486 19.9473 9.57993 18.6858 11.3617C16.5224 11.5623 14.4515 11.8847 12.5474 12.3164C12.4277 11.8345 12.3217 11.361 12.2312 10.8981ZM32.0736 15.8014C31.6184 15.0146 31.1511 14.2464 30.6747 13.4992C32.1424 13.6849 33.5486 13.9314 34.8692 14.233C34.4727 15.5046 33.9786 16.8341 33.3969 18.197C32.9796 17.4042 32.5383 16.6049 32.0736 15.8014ZM23.9819 7.91413C24.8883 8.89686 25.796 9.99406 26.6888 11.1845C25.7891 11.142 24.8783 11.1199 23.96 11.1199C23.0503 11.1199 22.1462 11.1415 21.252 11.1833C22.1458 10.0039 23.0613 8.90817 23.9819 7.91413ZM15.8384 15.815C15.3837 16.6041 14.9506 17.3991 14.5399 18.1955C13.9676 16.8374 13.4781 15.5018 13.0782 14.2122C14.3906 13.9183 15.7902 13.6779 17.2486 13.4958C16.7655 14.2499 16.2943 15.0239 15.8384 15.815ZM17.2906 27.567C15.7838 27.3988 14.3632 27.1708 13.0511 26.885C13.4574 25.5724 13.9577 24.2083 14.5421 22.8208C14.9539 23.6167 15.3887 24.4121 15.8462 25.2028C16.3122 26.0084 16.795 26.7975 17.2906 27.567ZM24.0363 33.147C23.1049 32.1413 22.1759 31.0289 21.2686 29.8323C22.1494 29.8668 23.0473 29.8845 23.96 29.8845C24.8976 29.8845 25.8244 29.8634 26.7367 29.8228C25.841 31.0409 24.9365 32.1551 24.0363 33.147ZM33.4156 22.7501C34.0305 24.1525 34.5488 25.5095 34.9603 26.7998C33.6266 27.1043 32.1865 27.3495 30.6693 27.5317C31.1468 26.7744 31.6182 25.993 32.0814 25.1893C32.55 24.3761 32.9949 23.5617 33.4156 22.7501ZM30.3792 24.2068C29.6602 25.4545 28.9219 26.6456 28.1725 27.77C26.8075 27.8676 25.3973 27.9179 23.96 27.9179C22.5285 27.9179 21.136 27.8734 19.7952 27.7863C19.0155 26.6473 18.2612 25.4526 17.5468 24.2175C16.8342 22.9858 16.1785 21.7436 15.5842 20.5084C16.1783 19.2704 16.8324 18.0268 17.5409 16.7973L17.5408 16.7975C18.2512 15.5647 18.9988 14.3759 19.7713 13.244C21.1393 13.1405 22.5421 13.0865 23.9599 13.0865C25.384 13.0865 26.7887 13.1409 28.1564 13.2453C28.917 14.3689 29.6596 15.5539 30.3728 16.7869C31.094 18.0337 31.7566 19.269 32.3558 20.4805C31.7584 21.7128 31.0973 22.9605 30.3792 24.2068ZM34.433 2.24589C35.9734 3.13488 36.5724 6.72016 35.6046 11.4216C35.5429 11.7216 35.4734 12.0271 35.3979 12.3368C33.4894 11.8961 31.417 11.5682 29.2473 11.3645C27.9833 9.56313 26.6735 7.92552 25.3588 6.50777C25.7123 6.16746 26.0652 5.84297 26.4168 5.53676C29.8128 2.57907 32.9868 1.41131 34.433 2.24589ZM23.96 16.3505C26.2285 16.3505 28.0676 18.1909 28.0676 20.4612C28.0676 22.7315 26.2285 24.572 23.96 24.572C21.6914 24.572 19.8523 22.7315 19.8523 20.4612C19.8523 18.1909 21.6914 16.3505 23.96 16.3505Z" fill="#257BC2"/>
</svg>
