<svg width="42" height="41" viewBox="0 0 42 41" fill="none" xmlns="http://www.w3.org/2000/svg">
<path d="M4.12725 0.0200195H38.6872C40.4546 0.0200195 41.8872 1.45271 41.8872 3.22002V37.78C41.8872 39.5473 40.4546 40.98 38.6872 40.98H4.12725C2.35993 40.98 0.927246 39.5473 0.927246 37.78V3.22002C0.927246 1.45271 2.35993 0.0200195 4.12725 0.0200195Z" fill="#3178C6"/>
<path d="M25.0102 32.096V36.5152C25.7289 36.8835 26.579 37.1597 27.5603 37.3439C28.5415 37.528 29.5758 37.62 30.6631 37.62C31.7227 37.62 32.7294 37.5187 33.683 37.3162C34.6366 37.1136 35.4729 36.7799 36.1915 36.3151C36.9102 35.8501 37.4791 35.2424 37.8985 34.492C38.3177 33.7418 38.5273 32.8143 38.5273 31.7095C38.5273 30.9085 38.4075 30.2064 38.1679 29.6034C37.9284 29.0003 37.5828 28.464 37.1313 27.9946C36.6799 27.525 36.1385 27.1039 35.5075 26.7309C34.8763 26.3581 34.1644 26.0059 33.3719 25.6746C32.7915 25.4351 32.271 25.2027 31.8102 24.9771C31.3495 24.7515 30.9579 24.5215 30.6355 24.2866C30.3129 24.0519 30.0641 23.8032 29.8891 23.5408C29.714 23.2784 29.6265 22.9816 29.6265 22.6501C29.6265 22.3463 29.7047 22.0725 29.8614 21.8285C30.018 21.5845 30.2393 21.3751 30.5249 21.2002C30.8105 21.0251 31.1606 20.8895 31.5753 20.7927C31.9899 20.696 32.4507 20.6477 32.9574 20.6477C33.326 20.6477 33.7153 20.6754 34.1252 20.7306C34.5353 20.7858 34.9476 20.8709 35.3623 20.9861C35.7769 21.1011 36.1799 21.2461 36.5716 21.4211C36.9631 21.596 37.3249 21.7986 37.6566 22.0287V17.8995C36.9839 17.6418 36.2491 17.4507 35.4521 17.3264C34.6551 17.2021 33.7406 17.14 32.7086 17.14C31.6582 17.14 30.6631 17.2528 29.7233 17.4784C28.7835 17.7039 27.9564 18.056 27.2423 18.5347C26.5283 19.0136 25.9639 19.6235 25.5492 20.3647C25.1347 21.1058 24.9273 21.9919 24.9273 23.0231C24.9273 24.3395 25.3073 25.4627 26.0676 26.3927C26.8278 27.3224 27.9817 28.1096 29.5297 28.7541C30.1379 29.0027 30.7046 29.2466 31.2297 29.4861C31.755 29.7255 32.2087 29.9739 32.5911 30.2317C32.9735 30.4895 33.2753 30.7703 33.4964 31.0741C33.7175 31.3779 33.8281 31.7232 33.8281 32.1099C33.8281 32.3952 33.759 32.66 33.6207 32.904C33.4827 33.1479 33.2729 33.3597 32.9919 33.5392C32.711 33.7187 32.3607 33.8591 31.9415 33.9603C31.5223 34.0616 31.0316 34.1123 30.4695 34.1123C29.5113 34.1123 28.5623 33.9443 27.6225 33.6082C26.6825 33.2722 25.8118 32.7682 25.0102 32.096ZM17.6444 21.0987H23.3273V17.46H7.4873V21.0987H13.1425V37.3H17.6444V21.0987Z" fill="white"/>
</svg>
