<svg width="155" height="39" viewBox="0 0 155 39" fill="none" xmlns="http://www.w3.org/2000/svg">
<g clip-path="url(#clip0_108_1500)">
<path d="M43.1369 7.65572L44.3076 8.4947C46.3436 10.1202 47.5144 11.9555 47.7689 14.053C49.9576 13.6335 52.7572 13.9481 53.9788 14.7871L55.0987 15.4687L54.8951 15.8882C54.5387 16.6748 54.4369 16.8845 54.386 16.9894C52.4009 20.9221 48.4815 20.9746 46.649 20.9221C42.017 32.4057 32.1422 38.7505 18.806 38.7505C12.647 38.7505 7.96405 36.8104 4.80817 32.9825C0.634261 27.9486 0.634261 21.3941 0.99057 19.2966L1.09237 18.8771H37.894C39.8283 18.8771 41.3044 18.3527 42.017 17.9333C41.2535 16.7797 40.999 15.4687 40.9481 14.7346C40.7954 12.6372 41.3044 10.4348 42.3224 8.86175L43.1369 7.65572ZM75.024 10.0905C75.4347 10.0905 75.7823 10.2268 76.0669 10.4993C76.3516 10.7718 76.4939 11.1158 76.4939 11.5315V24.5006C76.4939 26.6621 75.7286 28.491 74.1981 29.9874C72.6489 31.5024 70.8011 32.2598 68.6546 32.2598C66.4895 32.2598 64.6416 31.5024 63.1111 29.9874C61.5806 28.4725 60.8153 26.6436 60.8153 24.5006C60.8153 22.3575 61.5806 20.5286 63.1111 19.0137C64.6416 17.4987 66.4895 16.7413 68.6546 16.7413C70.5118 16.7413 72.1496 17.3094 73.5682 18.4456V11.5315C73.5682 11.1158 73.7058 10.7718 73.9811 10.4993C74.2564 10.2268 74.6041 10.0905 75.024 10.0905ZM85.9996 16.7413C88.1461 16.7413 89.9939 17.4987 91.5431 19.0137C92.3084 19.7711 92.88 20.6071 93.258 21.5216C93.6359 22.436 93.8296 23.429 93.8389 24.5006C93.8389 26.6621 93.0736 28.491 91.5431 29.9874C89.9939 31.5024 88.1461 32.2598 85.9996 32.2598C83.8345 32.2598 81.9866 31.5024 80.4561 29.9874C78.9256 28.4725 78.1603 26.6436 78.1603 24.5006C78.1603 22.3575 78.9256 20.5286 80.4561 19.0137C81.9866 17.4987 83.8345 16.7413 85.9996 16.7413ZM103.317 16.7413C105.286 16.7413 106.989 17.3694 108.426 18.6257C108.762 18.9213 108.93 19.2861 108.93 19.7203C108.93 20.136 108.792 20.4824 108.517 20.7595C108.242 21.0366 107.894 21.1752 107.474 21.1752C107.12 21.1752 106.802 21.0643 106.522 20.8426C106.046 20.4454 105.547 20.1452 105.024 19.942C104.502 19.7388 103.933 19.6372 103.317 19.6372C102.635 19.6372 101.996 19.7642 101.399 20.0182C100.802 20.2722 100.279 20.6186 99.8309 21.0574C99.383 21.4962 99.0307 22.0111 98.774 22.6023C98.5174 23.1935 98.3891 23.8262 98.3891 24.5006C98.3891 25.1749 98.5174 25.8076 98.774 26.3988C99.0307 26.99 99.383 27.5049 99.8309 27.9437C100.279 28.3825 100.802 28.7289 101.399 28.9829C101.996 29.2369 102.635 29.3639 103.317 29.3639C103.933 29.3639 104.502 29.2646 105.024 29.066C105.547 28.8674 106.042 28.5695 106.508 28.1723C106.77 27.9784 107.078 27.8767 107.432 27.8675C107.852 27.8675 108.2 28.0038 108.475 28.2763C108.75 28.5488 108.888 28.8928 108.888 29.3085C108.888 29.715 108.734 30.0706 108.426 30.3754C106.98 31.6317 105.276 32.2598 103.317 32.2598C101.151 32.2598 99.3036 31.5024 97.7731 29.9874C96.2426 28.4725 95.4773 26.6436 95.4773 24.5006C95.4773 22.3575 96.2426 20.5286 97.7731 19.0137C99.3036 17.4987 101.151 16.7413 103.317 16.7413ZM112.052 10.0905C112.454 10.0905 112.797 10.2314 113.081 10.5131C113.366 10.7949 113.508 11.1389 113.508 11.5454V22.3529L121.88 16.963C122.113 16.8152 122.374 16.7413 122.663 16.7413C122.869 16.7413 123.06 16.7783 123.237 16.8522C123.415 16.9261 123.569 17.03 123.699 17.1639C123.83 17.2978 123.935 17.4526 124.014 17.6281C124.094 17.8036 124.133 17.9883 124.133 18.1823C124.133 18.6996 123.947 19.0829 123.573 19.3323L117.708 23.1011L123.727 29.8073C123.998 30.1029 124.133 30.4401 124.133 30.8188C124.133 31.0128 124.094 31.1975 124.014 31.373C123.935 31.5485 123.83 31.7033 123.699 31.8372C123.569 31.9711 123.415 32.0751 123.237 32.149C123.06 32.2229 122.869 32.2598 122.663 32.2598C122.271 32.2598 121.945 32.1351 121.684 31.8857L115.216 24.6945L113.508 25.803V30.8049C113.508 31.2021 113.366 31.5439 113.081 31.8303C112.797 32.1166 112.454 32.2598 112.052 32.2598C111.642 32.2598 111.294 32.1166 111.009 31.8303C110.725 31.5439 110.583 31.2021 110.583 30.8049V11.5454C110.583 11.1389 110.725 10.7949 111.009 10.5131C111.294 10.2314 111.642 10.0905 112.052 10.0905ZM133.555 16.7413C135.701 16.7413 137.549 17.4987 139.099 19.0137C139.864 19.7619 140.438 20.5955 140.82 21.5146C141.203 22.4337 141.394 23.429 141.394 24.5006C141.394 24.9162 141.252 25.2603 140.967 25.5328C140.683 25.8053 140.335 25.9416 139.924 25.9416H128.837C128.996 26.4496 129.229 26.9138 129.537 27.3341C129.845 27.7544 130.207 28.1146 130.622 28.4148C131.038 28.715 131.495 28.9483 131.994 29.1145C132.493 29.2808 133.014 29.3639 133.555 29.3639C134.171 29.3639 134.736 29.2716 135.249 29.0868C135.762 28.9021 136.238 28.625 136.677 28.2555C136.957 28.0245 137.279 27.9045 137.643 27.8952C138.063 27.8952 138.41 28.0315 138.686 28.304C138.961 28.5765 139.099 28.9205 139.099 29.3362C139.099 29.7427 138.959 30.0891 138.679 30.3754C137.232 31.6317 135.524 32.2598 133.555 32.2598C131.39 32.2598 129.542 31.5024 128.012 29.9874C126.481 28.4725 125.716 26.6436 125.716 24.5006C125.716 22.3575 126.481 20.5286 128.012 19.0137C129.542 17.4987 131.39 16.7413 133.555 16.7413ZM150.844 16.7413C151.255 16.7413 151.696 16.769 152.167 16.8244C152.638 16.8799 153.072 16.9792 153.469 17.1223C153.865 17.2655 154.194 17.4618 154.456 17.7112C154.717 17.9606 154.848 18.2839 154.848 18.6811C154.848 18.8843 154.808 19.0737 154.729 19.2492C154.649 19.4247 154.544 19.5794 154.414 19.7134C154.283 19.8473 154.129 19.9512 153.952 20.0251C153.774 20.099 153.583 20.136 153.378 20.136C153.2 20.136 152.995 20.0852 152.762 19.9836C152.174 19.7526 151.535 19.6372 150.844 19.6372C150.163 19.6372 149.523 19.7642 148.926 20.0182C148.329 20.2722 147.809 20.6186 147.365 21.0574C146.922 21.4962 146.572 22.0111 146.315 22.6023C146.059 23.1935 145.93 23.8262 145.93 24.5006V30.8188C145.93 31.216 145.788 31.5555 145.503 31.8372C145.219 32.1189 144.876 32.2598 144.475 32.2598C144.064 32.2598 143.716 32.1189 143.432 31.8372C143.147 31.5555 143.005 31.216 143.005 30.8188V18.1823C143.005 17.7851 143.147 17.4456 143.432 17.1639C143.716 16.8822 144.064 16.7413 144.475 16.7413C144.876 16.7413 145.219 16.8822 145.503 17.1639C145.788 17.4456 145.93 17.7851 145.93 18.1823V18.4594C146.63 17.9052 147.391 17.4803 148.212 17.1847C149.034 16.8891 149.911 16.7413 150.844 16.7413ZM68.6546 19.6372C67.964 19.6372 67.3201 19.7665 66.7228 20.0251C66.1255 20.2838 65.6076 20.6325 65.1689 21.0712C64.7303 21.51 64.3827 22.025 64.126 22.6162C63.8694 23.2073 63.7411 23.8355 63.7411 24.5006C63.7411 25.1656 63.8694 25.7938 64.126 26.3849C64.3827 26.9761 64.7303 27.4911 65.1689 27.9299C65.6076 28.3686 66.1255 28.7173 66.7228 28.976C67.3201 29.2346 67.964 29.3639 68.6546 29.3639C69.3359 29.3639 69.9752 29.2346 70.5724 28.976C71.1697 28.7173 71.69 28.3663 72.1333 27.9229C72.5766 27.4795 72.9266 26.9646 73.1832 26.378C73.4398 25.7914 73.5682 25.1656 73.5682 24.5006C73.5682 23.8355 73.4398 23.2097 73.1832 22.6231C72.9266 22.0365 72.5766 21.5216 72.1333 21.0782C71.69 20.6348 71.1697 20.2838 70.5724 20.0251C69.9752 19.7665 69.3359 19.6372 68.6546 19.6372ZM85.9996 19.6372C85.309 19.6372 84.6651 19.7665 84.0678 20.0251C83.4705 20.2838 82.9526 20.6325 82.5139 21.0712C82.0753 21.51 81.7277 22.025 81.471 22.6162C81.2144 23.2073 81.086 23.8355 81.086 24.5006C81.086 25.1656 81.2144 25.7938 81.471 26.3849C81.7277 26.9761 82.0753 27.4911 82.5139 27.9299C82.9526 28.3686 83.4705 28.7173 84.0678 28.976C84.6651 29.2346 85.309 29.3639 85.9996 29.3639C86.6809 29.3639 87.3202 29.2346 87.9174 28.976C88.5147 28.7173 89.035 28.3663 89.4783 27.9229C89.9216 27.4795 90.2716 26.9646 90.5282 26.378C90.7848 25.7914 90.9132 25.1656 90.9132 24.5006C90.9132 23.8355 90.7848 23.2097 90.5282 22.6231C90.2716 22.0365 89.9216 21.5216 89.4783 21.0782C89.035 20.6348 88.5147 20.2838 87.9174 20.0251C87.3202 19.7665 86.6809 19.6372 85.9996 19.6372ZM133.555 19.6372C133.023 19.6372 132.505 19.7203 132.001 19.8866C131.497 20.0528 131.035 20.2861 130.615 20.5863C130.195 20.8865 129.831 21.2467 129.523 21.667C129.215 22.0873 128.987 22.5515 128.837 23.0595H138.273C138.114 22.5515 137.878 22.0873 137.566 21.667C137.253 21.2467 136.889 20.8865 136.474 20.5863C136.058 20.2861 135.601 20.0528 135.102 19.8866C134.603 19.7203 134.087 19.6372 133.555 19.6372ZM10.6618 12.5847V17.8284H5.06267V12.5847H10.6618ZM17.279 12.5847V17.8284H11.6798V12.5847H17.279ZM23.8962 12.5847V17.8284H18.297V12.5847H23.8962ZM30.5133 12.5847V17.8284H24.9142V12.5847H30.5133ZM37.1305 12.5847V17.8284H31.5314V12.5847H37.1305ZM30.5133 6.29237V11.536H24.9142V6.29237H30.5133ZM23.8962 6.29237V11.536H18.297V6.29237H23.8962ZM17.279 6.29237V11.536H11.6798V6.29237H17.279ZM30.5133 0V5.24364H24.9142V0H30.5133Z" fill="#2396ED"/>
</g>
<defs>
<clipPath id="clip0_108_1500">
<rect width="154" height="39" fill="white" transform="translate(0.847656)"/>
</clipPath>
</defs>
</svg>
