<svg width="50" height="50" viewBox="0 0 50 50" fill="none" xmlns="http://www.w3.org/2000/svg">
<rect width="50" height="50" rx="25" fill="white"/>
<g clip-path="url(#clip0_104_179)">
<path d="M12 24.844C12 23.076 12.3467 21.3947 13.04 19.8C14.4093 16.576 16.706 14.2793 19.93 12.91C21.5247 12.2167 23.206 11.87 24.974 11.87C26.742 11.87 28.4233 12.2167 30.018 12.91C33.2073 14.262 35.504 16.5587 36.908 19.8C37.6013 21.4467 37.948 23.128 37.948 24.844C37.948 26.56 37.6013 28.2413 36.908 29.888C35.504 33.1467 33.2073 35.4607 30.018 36.83C28.4233 37.5233 26.742 37.87 24.974 37.87C23.206 37.87 21.5247 37.5233 19.93 36.83C16.706 35.4433 14.4093 33.1293 13.04 29.888C12.3467 28.2933 12 26.612 12 24.844ZM14.028 24.844C14.028 27.288 14.756 29.472 16.212 31.396C17.6507 33.2853 19.5313 34.6287 21.854 35.426V33.346C21.854 32.306 22.2007 31.552 22.894 31.084C22.5473 31.0667 22.14 31.006 21.672 30.902C20.788 30.746 20.034 30.4687 19.41 30.07C17.8327 29.1167 17.044 27.392 17.044 24.896C17.044 23.596 17.4773 22.4867 18.344 21.568C17.9453 20.5453 17.9887 19.436 18.474 18.24H18.994C19.1673 18.24 19.384 18.2833 19.644 18.37C20.32 18.578 21.074 18.9593 21.906 19.514C22.9633 19.2367 24.0033 19.098 25.026 19.098C26.0487 19.098 27.0973 19.2367 28.172 19.514C28.848 19.0633 29.4807 18.7167 30.07 18.474C30.6247 18.266 31.0233 18.1793 31.266 18.214L31.578 18.24C32.046 19.436 32.0893 20.5453 31.708 21.568C32.5747 22.4867 33.008 23.596 33.008 24.896C33.008 26.8373 32.5313 28.302 31.578 29.29C31.058 29.8447 30.3733 30.278 29.524 30.59C28.8133 30.85 28.0247 31.0147 27.158 31.084C27.8687 31.5867 28.224 32.3407 28.224 33.346V35.426C30.46 34.6287 32.306 33.268 33.762 31.344C35.1833 29.4373 35.894 27.2707 35.894 24.844C35.894 23.3707 35.608 21.9493 35.036 20.58C34.4813 19.2627 33.7013 18.1013 32.696 17.096C31.7253 16.1253 30.564 15.354 29.212 14.782C27.8253 14.1927 26.4127 13.898 24.974 13.898C23.5527 13.898 22.1313 14.1927 20.71 14.782C19.41 15.3367 18.2487 16.108 17.226 17.096C16.2553 18.1013 15.4753 19.2627 14.886 20.58C14.314 21.9493 14.028 23.3707 14.028 24.844Z" fill="#8812D7"/>
</g>
<defs>
<clipPath id="clip0_104_179">
<rect width="26" height="26" fill="white" transform="translate(12 12)"/>
</clipPath>
</defs>
</svg>
