<svg width="70" height="41" viewBox="0 0 70 41" fill="none" xmlns="http://www.w3.org/2000/svg">
<g clip-path="url(#clip0_108_1452)">
<path d="M35.0046 0.0200195C25.9615 0.0200195 20.3761 4.54158 17.9823 13.5847C21.44 9.06314 25.4296 7.46729 29.9511 8.53119C32.6109 9.06314 34.2067 10.925 36.3345 13.0527C39.7922 16.5104 43.5158 20.5 52.027 20.5C61.0701 20.5 66.6555 15.9785 69.0493 6.93534C65.5916 11.4569 61.602 13.0527 57.0805 11.9889C54.4207 11.1909 52.8249 9.32911 50.6971 7.20132C47.2394 4.00963 43.5158 0.0200195 35.0046 0.0200195ZM17.9823 20.5C8.93918 20.5 3.35373 25.0216 0.959961 34.0647C4.41762 29.5431 8.40723 27.9473 12.9288 29.0112C15.5885 29.5431 17.1844 31.405 19.3122 33.5327C22.7698 36.9904 26.4935 40.98 35.0046 40.98C44.0478 40.98 49.6332 36.4585 52.027 27.1494C48.5693 31.6709 44.5797 33.5327 40.0581 32.4688C37.3984 31.6709 35.8026 29.8091 33.6748 27.6813C30.2171 24.4896 26.4935 20.5 17.9823 20.5Z" fill="url(#paint0_linear_108_1452)"/>
</g>
<defs>
<linearGradient id="paint0_linear_108_1452" x1="-189.69" y1="1310.74" x2="5698.11" y2="4700.19" gradientUnits="userSpaceOnUse">
<stop stop-color="#2298BD"/>
<stop offset="1" stop-color="#0ED7B5"/>
</linearGradient>
<clipPath id="clip0_108_1452">
<rect width="68.0893" height="40.96" fill="white" transform="translate(0.959961 0.0200195)"/>
</clipPath>
</defs>
</svg>
